<?xml version="1.0" standalone="no"?>
<!DOCTYPE svg PUBLIC "-//W3C//DTD SVG 20010904//EN"
 "http://www.w3.org/TR/2001/REC-SVG-20010904/DTD/svg10.dtd">
<svg version="1.0" xmlns="http://www.w3.org/2000/svg"
 width="790.000000pt" height="790.000000pt" viewBox="0 0 790.000000 790.000000"
 preserveAspectRatio="xMidYMid meet">
<metadata>
Created by potrace 1.11, written by Peter Selinger 2001-2013
</metadata>
<g transform="translate(0.000000,790.000000) scale(0.100000,-0.100000)"
fill="#000000" stroke="none">
<path d="M3930 6907 l-144 -132 180 -3 180 -2 874 -2058 c480 -1131 895 -2102
922 -2157 26 -55 67 -121 89 -147 50 -59 94 -74 264 -89 66 -7 126 -16 133
-22 10 -8 12 -41 10 -134 -2 -68 0 -123 5 -123 4 0 7 263 7 585 l0 586 -1176
1902 c-647 1046 -1181 1907 -1187 1914 -9 10 -45 -18 -157 -120z"/>
<path d="M2527 5628 l-1077 -981 0 -593 0 -592 265 -429 c146 -235 270 -429
274 -431 9 -3 151 325 320 740 377 926 1306 3268 1297 3268 -1 0 -487 -442
-1079 -982z"/>
<path d="M3276 4725 c-186 -476 -336 -868 -333 -871 7 -7 1364 -7 1375 0 8 5
-669 1683 -695 1724 -5 8 -131 -301 -347 -853z"/>
<path d="M2914 3473 l-132 -4 -87 -242 c-121 -334 -161 -454 -195 -585 -35
-133 -37 -185 -10 -229 36 -60 92 -76 320 -94 113 -8 160 -15 173 -27 14 -13
17 -33 17 -122 0 -69 -4 -110 -12 -118 -9 -9 141 -12 678 -12 l689 0 -3 118
c-3 104 -1 119 15 134 15 14 55 19 193 28 192 12 244 26 277 76 39 60 22 120
-194 685 l-148 386 -194 6 c-185 7 -1110 6 -1387 0z"/>
<path d="M2357 2043 c18 -2 50 -2 70 0 21 2 7 4 -32 4 -38 0 -55 -2 -38 -4z"/>
<path d="M5153 2043 c126 -2 328 -2 450 0 122 1 20 2 -228 2 -247 0 -347 -1
-222 -2z"/>
</g>
</svg>
